<?xml version="1.0" encoding="UTF-8"?>
<svg id="Camada_1" data-name="Camada 1" xmlns="http://www.w3.org/2000/svg" xmlns:xlink="http://www.w3.org/1999/xlink" viewBox="0 0 1675.14 1011.14">
  <defs>
    <style>
      .cls-1, .cls-2, .cls-3, .cls-4, .cls-5, .cls-6, .cls-7, .cls-8, .cls-9 {
        stroke-width: 0px;
      }

      .cls-1, .cls-4 {
        fill: #000;
      }

      .cls-2 {
        fill: url(#Gradiente_sem_nome_195);
      }

      .cls-3 {
        fill: url(#Gradiente_sem_nome_37);
      }

      .cls-4 {
        fill-rule: evenodd;
      }

      .cls-5 {
        fill: url(#Gradiente_sem_nome_92);
      }

      .cls-6 {
        fill: url(#Gradiente_sem_nome_200-2);
      }

      .cls-7 {
        fill: #fff;
      }

      .cls-8 {
        fill: url(#Gradiente_sem_nome_200);
      }

      .cls-9 {
        fill: #aec90a;
      }
    </style>
    <linearGradient id="Gradiente_sem_nome_195" data-name="Gradiente sem nome 195" x1="533.06" y1="171.05" x2="979.7" y2="171.05" gradientUnits="userSpaceOnUse">
      <stop offset="0" stop-color="#aec910"/>
      <stop offset=".99" stop-color="#6e810c"/>
    </linearGradient>
    <linearGradient id="Gradiente_sem_nome_37" data-name="Gradiente sem nome 37" x1="543.08" y1="301.7" x2="954.22" y2="301.7" gradientUnits="userSpaceOnUse">
      <stop offset="0" stop-color="#b13f0a"/>
      <stop offset="1" stop-color="#e74d0f"/>
    </linearGradient>
    <linearGradient id="Gradiente_sem_nome_200" data-name="Gradiente sem nome 200" x1="948.33" y1="675.89" x2="948.33" y2="6.6" gradientUnits="userSpaceOnUse">
      <stop offset=".3" stop-color="#00893b"/>
      <stop offset=".31" stop-color="#078b38"/>
      <stop offset=".39" stop-color="#339b2c"/>
      <stop offset=".48" stop-color="#59a921"/>
      <stop offset=".57" stop-color="#78b519"/>
      <stop offset=".66" stop-color="#8fbd12"/>
      <stop offset=".76" stop-color="#a0c40d"/>
      <stop offset=".87" stop-color="#aac70a"/>
      <stop offset="1" stop-color="#aec90a"/>
    </linearGradient>
    <linearGradient id="Gradiente_sem_nome_200-2" data-name="Gradiente sem nome 200" x1="898.53" y1="675.91" x2="898.53" y2="675.89" xlink:href="#Gradiente_sem_nome_200"/>
    <linearGradient id="Gradiente_sem_nome_92" data-name="Gradiente sem nome 92" x1="851.26" y1="132.84" x2="988.45" y2="270.04" gradientUnits="userSpaceOnUse">
      <stop offset="0" stop-color="#00893b"/>
      <stop offset="1" stop-color="#05662a"/>
    </linearGradient>
  </defs>
  <g>
    <path class="cls-2" d="M979.69,63.71c-41.21-10.72-81.1-9.97-119.78,2.43-116.53,37.38-191.34,115.04-221.4,234.51-3.3,13.09-5.1,26.57-7.82,41.06-26.85,1.48-53.09-.55-76.28-16.77-15.07-10.54-20-26.24-21.02-43.72-2.14-36.5,6.25-70.74,21.15-103.88C600.46,75.28,743.4-9.88,849.1.91c48.6,4.97,90.21,25.22,126.39,57.47,1.25,1.12,2.13,2.66,4.22,5.34h-.01Z"/>
    <path class="cls-3" d="M543.08,331.1c41.25,27.34,83.32,24.78,125.74,16.49,15.68-3.06,31.17-7.89,46.19-13.39,32.43-11.88,50.9-35.14,54.66-70,1.27-11.75,3.96-23.41,6.66-34.95,4.31-18.41,13.99-33.74,26.56-45.14,18.87,5.09,36.36,10.12,54,14.5,34.52,8.57,57.98,29.73,71.9,62.07,4.23,9.84,7.97,19.92,12.62,29.53,3.1,6.38,7.44,12.16,12.79,20.73-11.24,10.06-22.94,22.67-36.64,32.46-63.47,45.31-134.25,71.83-212.23,75.64-67.88,3.31-120.28-26.7-159.2-81.54-.79-1.11-1.2-2.48-3.06-6.4h0Z"/>
    <g>
      <path class="cls-8" d="M1100.55,109.74c-26.51-34.01-62.27-56.4-101.2-73.79-32.3-14.43-65.85-24.92-100.98-29.35h0c8.74,3.89,17.59,7.57,26.22,11.7,59.49,28.51,94.57,75.58,105.29,140.53,7.92,47.95-8.54,89.44-36.34,127.25-32.11,43.67-73.54,77.17-120.71,102.65-44.3,23.97-103.3,43.05-110.56,45.36-.23.07-.46.14-.68.22-.04.01-.07.02-.07.02h0c-5.5,1.85-7.52,4.27-6.82,10.36,2.35,20.56.69,10.86,3.84,31.28,7.18,46.59,17.5,92.53,34.54,136.58,3.82,9.88,10.25,20.24,18.39,26.69,24.75,19.61,54.87,27.69,87.05,36.65-21.53-61.31-34.15-111.39-42.61-164.64-.05-.32-.1-.63-.15-.93-.06-.36-.11-.73-.17-1.09-2.14-14.05,8.42-17.45,8.42-17.45,41.15-12.15,81.11-27.28,118.84-47.95,56.54-30.98,105.26-70.63,135.01-129.13,36.31-71.41,32.75-140.73-17.32-204.95Z"/>
      <path class="cls-6" d="M898.53,675.89h0s0,0,0,.01h0Z"/>
    </g>
    <path class="cls-5" d="M925.27,153.72c.28-1.54-.17-5.8,1.74-8.01,3.01-3.46,7.76-7.82,11.5-7.58,4.34.28,8.44,5.03,12.49,8.06.67.51.84,2.23.66,3.28-3.53,19.84,6.81,35.39,14.55,52.31,10.99,24.02,11.29,49.81,5.59,75.53-.9,4.08-2.12,8.36-4.35,11.79-3.01,4.63-7.15,8.52-10.79,12.74-3.52-4.15-7.9-7.86-10.37-12.56-4.23-8.11-7.45-16.78-10.8-25.34-15.3-39.12-43.38-63.11-84.43-71.96-9.72-2.1-19.51-4.08-29-6.98-4.43-1.36-8.23-4.77-12.31-7.25,2.99-4.15,5.17-9.46,9.13-12.28,16.4-11.73,35.49-16.76,55.21-16.74,16.61.01,33.21,3.13,51.19,5.01v-.03Z"/>
    <path class="cls-9" d="M740.36,441.21c3.91,24.61,7.71,48.44,11.57,72.74-9.33,5.3-18.32,2.96-26.97-1.95-23.26-13.22-40.74-33.01-60.91-52.76,26.57-6.28,51.23-12.11,76.31-18.04h0Z"/>
    <path class="cls-7" d="M790.19,284.63s-3.03-45.55,22.09-77.36c0,0,2.43-5.2-.84-7.08s-5.42,1.62-5.42,1.62c0,0-28.43,29-22.24,86.05,0,0,.77,2.52,4.04,2.27,3.27-.24,2.38-5.5,2.38-5.5Z"/>
  </g>
  <g>
    <path class="cls-4" d="M86.44,769c16.38,0,31.18,3.84,44.26,11.63,12.99,7.55,23.29,17.94,30.83,31.11l.72,1.25c7.31,12.96,10.93,27.44,10.93,43.33s-3.52,31.15-10.65,44.38c-6.91,12.98-16.48,23.41-28.68,31.19l-.03.02-.03.02c-12.31,7.64-26.17,11.42-41.45,11.42-12.35,0-23.86-2.52-34.46-7.6l-.12-.06c-7.14-3.64-16.97,1.07-16.97,9.09v45.99c0,5.51-1.79,10.42-5.57,14.27l-.37.38c-3.85,3.91-8.83,5.74-14.46,5.74s-10.7-2-14.7-5.99C1.83,1001.29,0,996.33,0,990.76v-134.51c.21-16.35,4.05-31.22,11.62-44.46,7.3-12.78,17.2-22.95,29.64-30.45l1.21-.72c13.07-7.79,27.77-11.63,43.97-11.63ZM86.44,806.26c-8.89,0-16.86,2.21-24.04,6.59h-.02s-.02.02-.02.02c-6.99,4.2-12.52,10.05-16.61,17.69v.02s-.02.02-.02.02c-4.04,7.37-6.12,15.9-6.12,25.73,0,9.6,2.07,18.15,6.14,25.75,4.07,7.42,9.6,13.3,16.63,17.71,7.18,4.19,15.16,6.31,24.06,6.31s17.08-2.13,24.03-6.29c7.05-4.42,12.6-10.31,16.68-17.76v-.02s.02-.02.02-.02c4.11-7.36,6.26-15.58,6.39-24.8v-.89c0-9.79-2.16-18.29-6.36-25.64l-.04-.07-.04-.07c-4.08-7.64-9.61-13.49-16.61-17.69l-.04-.02-.04-.03c-6.94-4.34-14.88-6.56-23.99-6.56Z"/>
    <path class="cls-4" d="M476.86,769c16.38,0,31.18,3.84,44.26,11.63,13,7.55,23.29,17.94,30.82,31.11l.72,1.25c7.31,12.96,10.93,27.44,10.93,43.33s-3.52,31.15-10.65,44.38c-6.91,12.98-16.48,23.41-28.68,31.19l-.03.02-.03.02c-12.31,7.64-26.17,11.42-41.45,11.42-12.35,0-23.86-2.52-34.46-7.6l-.12-.06c-7.14-3.64-16.97,1.07-16.97,9.09v45.99c0,5.51-1.79,10.42-5.57,14.27l-.37.38c-3.85,3.91-8.83,5.74-14.46,5.74s-10.71-2-14.7-5.99c-3.87-3.87-5.7-8.83-5.7-14.4v-134.51c.21-16.35,4.05-31.22,11.61-44.46,7.3-12.78,17.2-22.95,29.64-30.45l1.21-.72c13.07-7.79,27.77-11.63,43.97-11.63ZM476.86,806.26c-8.89,0-16.86,2.21-24.04,6.59h-.02s-.02.02-.02.02c-6.99,4.2-12.52,10.05-16.61,17.69v.02s-.02.02-.02.02c-4.04,7.37-6.12,15.9-6.12,25.73s2.07,18.15,6.14,25.75c4.07,7.42,9.6,13.3,16.63,17.71,7.18,4.19,15.16,6.31,24.06,6.31s17.09-2.13,24.03-6.29c7.05-4.42,12.6-10.31,16.67-17.76v-.02s.02-.02.02-.02c4.11-7.36,6.26-15.58,6.39-24.8v-.89c0-9.79-2.16-18.29-6.36-25.64l-.04-.07-.04-.07c-4.08-7.64-9.61-13.49-16.6-17.69l-.04-.02-.04-.03c-6.94-4.34-14.88-6.56-23.99-6.56Z"/>
    <path class="cls-4" d="M684.17,769c16.38,0,31.18,3.84,44.26,11.63,13,7.55,23.29,17.94,30.82,31.11l.72,1.25c7.31,12.96,10.93,27.44,10.93,43.33s-3.52,31.15-10.65,44.38c-6.91,12.98-16.48,23.41-28.68,31.19l-.03.02-.03.02c-12.31,7.64-26.17,11.42-41.45,11.42-12.35,0-23.86-2.52-34.46-7.6l-.12-.06c-7.14-3.64-16.97,1.07-16.97,9.09v45.99c0,5.51-1.79,10.42-5.57,14.27l-.37.38c-3.85,3.91-8.83,5.74-14.46,5.74s-10.71-2-14.7-5.99c-3.87-3.87-5.7-8.83-5.7-14.4v-134.51c.21-16.35,4.05-31.22,11.61-44.46,7.3-12.78,17.2-22.95,29.64-30.45l1.21-.72c13.07-7.79,27.77-11.63,43.97-11.63ZM684.17,806.26c-8.89,0-16.86,2.21-24.04,6.59h-.02s-.02.02-.02.02c-6.99,4.2-12.52,10.05-16.61,17.69v.02s-.03.02-.03.02c-4.04,7.37-6.12,15.9-6.12,25.73s2.07,18.15,6.14,25.75c4.07,7.42,9.6,13.3,16.63,17.71,7.18,4.19,15.16,6.31,24.06,6.31s17.09-2.13,24.03-6.29c7.05-4.42,12.6-10.31,16.67-17.76v-.02s.02-.02.02-.02c4.11-7.36,6.26-15.58,6.39-24.8v-.89c0-9.79-2.16-18.29-6.36-25.64l-.04-.07-.04-.07c-4.09-7.64-9.61-13.49-16.6-17.69l-.04-.02-.04-.03c-6.94-4.34-14.89-6.56-23.99-6.56Z"/>
    <path class="cls-4" d="M284.01,769c16.12,0,30.3,3.62,42.29,11.1,11.9,7.23,20.94,17.34,27.08,30.19l.58,1.19c5.94,12.37,8.83,26.48,8.83,42.19,0,5.1-1.81,9.63-5.4,13.22l-.08.08-.08.07c-3.68,3.39-8.28,4.96-13.36,4.96h-93.95c-5.73,0-9.85,5.56-6.97,10.52,4.43,7.62,10.52,13.63,18.36,18.08,7.74,4.4,16.74,6.67,27.13,6.67,5.45,0,11.05-.97,16.82-2.95,6.13-2.24,10.8-4.66,14.16-7.18l.05-.03c3.73-2.73,7.91-4.24,12.43-4.28,4.62-.23,8.87,1.05,12.43,3.93l.35.29.08.07c4.12,3.64,6.82,8.13,7.11,13.45.31,5.62-2.33,10.24-6.74,13.63h0c-7.27,5.77-16.2,10.36-26.67,13.85-10.3,3.5-20.32,5.3-30.03,5.3-17.09,0-32.53-3.61-46.18-10.96l-.04-.02-.04-.02c-13.38-7.53-23.99-17.81-31.75-30.82l-.03-.04-.02-.04c-7.59-13.28-11.32-28.37-11.32-45.11s3.51-31.94,10.69-45.03v-.03c7.34-13.19,17.45-23.53,30.28-30.91,12.91-7.62,27.63-11.36,44-11.36ZM284.01,805.08c-10.39,0-19.01,2.27-26.08,6.57-6.96,4.35-12.26,10.34-15.96,18.09v.02s-.02.02-.02.02c-1.86,3.81,1.18,7.91,5.42,7.91h65.54c5.57,0,9.71-5.27,7.27-10.28v-.02s-.02-.02-.02-.02c-3.34-7.03-8.01-12.44-14.02-16.39-5.85-3.84-13.13-5.9-22.12-5.9Z"/>
    <path class="cls-4" d="M881.74,769c16.13,0,30.3,3.62,42.29,11.1,11.9,7.23,20.94,17.34,27.07,30.19l.59,1.19c5.94,12.37,8.83,26.48,8.83,42.19,0,5.1-1.81,9.63-5.41,13.22l-.08.08-.08.07c-3.68,3.39-8.28,4.96-13.37,4.96h-93.95c-5.73,0-9.85,5.56-6.97,10.52,4.43,7.62,10.52,13.63,18.36,18.08,7.74,4.4,16.74,6.67,27.13,6.67,5.44,0,11.04-.96,16.81-2.95,6.14-2.24,10.81-4.66,14.17-7.19l.05-.03c3.73-2.73,7.91-4.24,12.43-4.28,4.62-.23,8.87,1.05,12.43,3.93l.34.29.09.07c4.12,3.64,6.82,8.13,7.11,13.45.32,5.62-2.33,10.24-6.73,13.63h0c-7.27,5.77-16.2,10.36-26.67,13.85-10.3,3.5-20.32,5.3-30.03,5.3-17.09,0-32.52-3.61-46.17-10.96l-.04-.02-.04-.02c-13.38-7.53-23.99-17.81-31.75-30.82l-.03-.04-.02-.04c-7.59-13.28-11.32-28.37-11.32-45.11s3.51-31.94,10.69-45.03v-.03c7.34-13.19,17.45-23.53,30.28-30.91,12.91-7.62,27.63-11.36,44-11.36ZM881.74,805.08c-10.39,0-19.01,2.27-26.07,6.57-6.96,4.35-12.26,10.34-15.96,18.09v.02s-.02.02-.02.02c-1.86,3.81,1.18,7.91,5.42,7.91h65.54c5.57,0,9.71-5.27,7.27-10.28v-.02s-.02-.02-.02-.02c-3.34-7.03-8.01-12.44-14.02-16.39-5.84-3.84-13.13-5.9-22.12-5.9Z"/>
    <path class="cls-4" d="M1198.21,769c16.54,0,31.42,3.72,44.5,11.31,13.06,7.37,23.29,17.72,30.64,30.95,7.58,13.1,11.29,28.18,11.29,45.07s-3.62,31.78-10.99,45.06v.02s-.02.02-.02.02c-7.35,13.02-17.57,23.34-30.58,30.89l-.03.02-.03.02c-13.09,7.39-28.08,11.01-44.8,11.01s-31.7-3.62-44.8-11.01l-.03-.02-1.24-.73c-12.42-7.48-22.32-17.54-29.63-30.12l-.03-.04-.02-.04c-7.38-13.27-11-28.34-11-45.06s3.62-31.99,11.02-45.09h0s0-.02,0-.02c7.55-13.2,17.87-23.54,30.91-30.9,13.09-7.59,28.08-11.31,44.8-11.31ZM1198.21,806.26c-9.36,0-17.43,2.15-24.36,6.31-7,4.2-12.52,10.05-16.61,17.68l-.02.02v.02c-4.04,7.36-6.13,15.98-6.13,26.02s2.09,18.67,6.12,26.02c4.07,7.44,9.61,13.22,16.63,17.44,6.93,4.16,15,6.31,24.36,6.31s17.43-2.15,24.37-6.31c7.01-4.2,12.41-9.95,16.29-17.35l.03-.04.03-.04c3.9-7.13,5.98-15.44,6.11-25.09v-.94c0-10.05-2.08-18.67-6.11-26.02l-.03-.07-.03-.07c-3.89-7.59-9.3-13.42-16.27-17.6-6.94-4.16-15-6.31-24.37-6.31Z"/>
    <path class="cls-4" d="M1596.37,769c16.12,0,30.29,3.62,42.28,11.1,11.9,7.23,20.94,17.34,27.08,30.19l.59,1.19c5.93,12.37,8.82,26.48,8.82,42.19,0,5.1-1.81,9.63-5.41,13.22l-.08.08-.08.07c-3.68,3.39-8.27,4.96-13.36,4.96h-93.96c-5.73,0-9.85,5.56-6.96,10.52,4.43,7.62,10.52,13.63,18.36,18.08,7.75,4.4,16.73,6.67,27.13,6.67,5.44,0,11.04-.96,16.8-2.95,6.15-2.24,10.81-4.66,14.18-7.19l.04-.03c3.74-2.73,7.91-4.24,12.43-4.28,4.62-.23,8.87,1.05,12.43,3.93l.35.29.08.07c4.13,3.64,6.82,8.13,7.12,13.45.31,5.62-2.34,10.24-6.74,13.63h0c-7.27,5.77-16.2,10.36-26.67,13.85-10.3,3.5-20.32,5.3-30.03,5.3-17.1,0-32.53-3.61-46.18-10.96l-.04-.02-.04-.02c-13.38-7.53-23.99-17.81-31.76-30.82l-.03-.04-.03-.04c-7.58-13.28-11.32-28.37-11.32-45.11s3.51-31.94,10.69-45.03h0v-.03c7.33-13.19,17.44-23.53,30.27-30.91,12.91-7.62,27.63-11.36,44-11.36ZM1596.37,805.08c-10.39,0-19.02,2.27-26.08,6.57-6.96,4.35-12.26,10.34-15.96,18.09v.02s-.02.02-.02.02c-1.86,3.81,1.18,7.91,5.41,7.91h65.53c5.57,0,9.71-5.27,7.27-10.28v-.02s-.03-.02-.03-.02c-3.34-7.03-8.01-12.44-14.02-16.39-5.84-3.84-13.13-5.9-22.11-5.9Z"/>
    <path class="cls-1" d="M1404.24,768.7c14.35,0,27.34,3.13,38.83,9.5,11.73,6.2,20.9,15.4,27.46,27.44,6.63,11.81,9.92,25.99,10.11,42.31v1.59s0,72.53,0,72.53c0,5.69-2,10.7-5.99,14.7-3.87,3.87-8.83,5.7-14.41,5.7s-10.54-1.82-14.56-5.57l-.14-.13-.12-.14c-3.75-4.02-5.57-8.99-5.57-14.57v-72.53c0-10.59-1.95-18.71-5.47-24.72-3.61-6.19-8.41-10.62-14.46-13.48l-.08-.04-.09-.04c-6-3.09-13.09-4.71-21.43-4.71-7.51,0-14.15,1.52-20.01,4.45-5.94,2.97-10.53,6.91-13.9,11.81l-.03.04-.03.04c-3.12,4.37-4.79,9.45-4.89,15.41v.68s0,83.1,0,83.1c0,5.57-1.82,10.55-5.57,14.57l-.06.07-.07.07c-3.92,3.92-9,5.7-14.7,5.7s-10.54-1.82-14.56-5.57l-.13-.13-.13-.14c-3.75-4.02-5.57-8.99-5.57-14.57v-131.49c0-5.69,1.77-10.78,5.7-14.7l.06-.07.07-.06c4.02-3.75,9-5.57,14.56-5.57,5.7,0,10.79,1.78,14.7,5.7,3.04,3.04,8.06,4.71,11.79,2.6.34-.19.67-.38,1.01-.56,11.28-6.17,23.87-9.21,37.66-9.21Z"/>
    <path class="cls-1" d="M1072.53,768.41c12.13,0,22.14,1.98,29.16,6.77,3.44,2.19,6.29,4.9,7.99,8.28,1.73,3.46,2.02,7.19,1.1,10.93-.79,3.64-2.44,6.88-5.22,9.33l-.03.03c-2.34,2.05-5.11,3.34-8.18,3.89-2.96.54-6.03.38-9.12-.32-12.02-2.44-22.54-2.57-31.68-.6-9.22,1.99-16.17,5.6-21.18,10.59-4.62,4.79-7.03,10.87-7.03,18.66v86.09c0,5.62-1.52,10.74-5.28,14.57-3.73,4.03-9.06,5.54-14.82,5.54s-10.69-1.4-14.54-4.96l-.09-.07-.07-.08c-3.88-3.88-5.41-9.18-5.41-14.99v-131.79c0-5.69,1.56-10.86,5.41-14.7,3.84-3.84,9.01-5.4,14.69-5.4s10.98,1.47,14.7,5.4c3.29,3.13,8.78,5.16,12.68,2.83.6-.36,1.22-.72,1.84-1.07,10.67-5.97,22.38-8.94,35.05-8.94Z"/>
  </g>
</svg>