<svg width="1462" height="813" viewBox="0 0 1462 813" fill="none" xmlns="http://www.w3.org/2000/svg">
<path d="M1462 808.026L1378.56 613.76L1295.41 808.026H1307.08L1331.29 751.618H1426.12L1450.04 808.026H1462ZM1421.15 740.81H1335.96L1378.56 641.177L1421.15 740.81Z" fill="#FB3199"/>
<path d="M432.096 808.026L348.649 613.76L265.502 808.026H277.169L301.385 751.618H396.205L420.13 808.026H432.096ZM391.25 740.81H306.054L348.649 641.177L391.25 740.81Z" fill="#FB3199"/>
<path d="M1310.29 630.63V619.823H1206.13V630.63H1252.23V808.026H1264.19V630.63H1310.29Z" fill="#FB3199"/>
<path d="M1188.92 811.191V619.825H1176.95V783.251L1021.44 618.509V808.028H1033.12V648.294L1188.92 811.191Z" fill="#FB3199"/>
<path d="M996.647 808.026V797.22H908.538V710.762H996.647V699.164H908.538V630.63H996.647V619.823H896.574V808.026H996.647Z" fill="#FB3199"/>
<path d="M649.453 717.09H567.469V727.896H636.325C634.38 744.767 626.6 759.878 612.984 773.235C595.09 790.982 571.457 799.856 542.085 799.856C514.662 799.856 491.807 791.774 473.525 775.607C455.628 759.44 446.682 738.879 446.682 713.927C446.682 689.15 455.728 668.589 473.815 652.248C491.904 635.904 514.662 627.734 542.085 627.734C575.736 627.734 601.897 639.331 620.57 662.527L630.197 655.938C608.803 630.106 579.431 617.19 542.085 617.19C510.966 617.19 485.293 626.328 465.063 644.604C445.028 662.703 435.012 685.811 435.012 713.927C435.012 742.394 445.028 765.678 465.063 783.778C484.903 801.702 510.576 810.663 542.085 810.663C575.154 810.663 601.702 801.087 621.736 781.933C640.215 764.359 649.453 742.746 649.453 717.09Z" fill="#FB3199"/>
<path d="M250.328 808.027L196.062 614.026L125.163 782.195L54.2674 614.289L0 808.027H11.9612L56.6019 649.61L125.163 812.771L193.727 649.874L238.076 808.027H250.328Z" fill="#FB3199"/>
<path d="M875.107 717.09H793.122V727.896H861.978C860.034 744.767 852.253 759.878 838.638 773.235C820.744 790.982 797.111 799.856 767.739 799.856C740.315 799.856 717.461 791.774 699.178 775.607C681.282 759.44 672.336 738.879 672.336 713.927C672.336 689.15 681.381 668.589 699.469 652.248C717.558 635.904 740.315 627.734 767.739 627.734C801.39 627.734 827.55 639.331 846.224 662.527L855.851 655.938C834.456 630.106 805.085 617.19 767.739 617.19C736.62 617.19 710.946 626.328 690.717 644.604C670.682 662.703 660.666 685.811 660.666 713.927C660.666 742.394 670.682 765.678 690.717 783.778C710.556 801.702 736.23 810.663 767.739 810.663C800.807 810.663 827.356 801.087 847.39 781.933C865.868 764.359 875.107 742.746 875.107 717.09Z" fill="#00AB4F"/>
<path d="M1112.46 216.869V119.789C1112.46 53.6494 1058.81 0 992.387 0H895.591C829.168 0 775.519 53.6494 775.519 119.789V336.657H992.387C1058.81 336.657 1112.46 283.008 1112.46 216.869Z" fill="url(#paint0_linear_58_45)"/>
<path fill-rule="evenodd" clip-rule="evenodd" d="M670.109 80.3422H596.265C545.858 80.3422 505 121.205 505 171.612V245.451C505 295.858 545.858 336.716 596.265 336.716H761.373V171.612C761.373 121.205 720.515 80.3422 670.109 80.3422Z" fill="url(#paint1_linear_58_45)"/>
<path fill-rule="evenodd" clip-rule="evenodd" d="M585.337 413.64V464.347C585.337 498.949 613.392 527 648.004 527H698.706C733.317 527 761.372 498.949 761.372 464.347V350.969H648.004C613.392 350.969 585.337 379.029 585.337 413.64Z" fill="url(#paint2_linear_58_45)"/>
<path fill-rule="evenodd" clip-rule="evenodd" d="M891.05 426.721V393.467C891.05 370.781 872.655 352.376 849.96 352.376H775.625V426.721C775.625 449.402 794.02 467.812 816.716 467.812H849.96C872.655 467.812 891.05 449.402 891.05 426.721Z" fill="url(#paint3_linear_58_45)"/>
<defs>
<linearGradient id="paint0_linear_58_45" x1="943.989" y1="0" x2="943.989" y2="336.657" gradientUnits="userSpaceOnUse">
<stop stop-color="#EC2C91"/>
<stop offset="1" stop-color="#EE4397"/>
</linearGradient>
<linearGradient id="paint1_linear_58_45" x1="633.187" y1="336.716" x2="633.187" y2="80.3422" gradientUnits="userSpaceOnUse">
<stop offset="0.47596" stop-color="#00AA59"/>
<stop offset="1" stop-color="#007442"/>
</linearGradient>
<linearGradient id="paint2_linear_58_45" x1="673.355" y1="527" x2="673.355" y2="350.969" gradientUnits="userSpaceOnUse">
<stop offset="0.5" stop-color="#00AA59"/>
<stop offset="1" stop-color="#007040"/>
</linearGradient>
<linearGradient id="paint3_linear_58_45" x1="833.338" y1="467.812" x2="833.338" y2="352.376" gradientUnits="userSpaceOnUse">
<stop offset="0.5" stop-color="#00A959"/>
<stop offset="1" stop-color="#007341"/>
</linearGradient>
</defs>
</svg>
