<?xml version="1.0" encoding="UTF-8"?>
<svg id="Camada_1" data-name="Camada 1" xmlns="http://www.w3.org/2000/svg" xmlns:xlink="http://www.w3.org/1999/xlink" viewBox="0 0 1918.22 549.74">
  <defs>
    <style>
      .cls-1, .cls-2, .cls-3, .cls-4, .cls-5, .cls-6, .cls-7, .cls-8 {
        stroke-width: 0px;
      }

      .cls-1, .cls-4 {
        fill: #000;
      }

      .cls-2 {
        fill: url(#Gradiente_sem_nome_195);
      }

      .cls-3 {
        fill: url(#Gradiente_sem_nome_37);
      }

      .cls-4 {
        fill-rule: evenodd;
      }

      .cls-5 {
        fill: url(#Gradiente_sem_nome_92);
      }

      .cls-6 {
        fill: #fff;
      }

      .cls-7 {
        fill: url(#Gradiente_sem_nome_200);
      }

      .cls-8 {
        fill: #aec90a;
      }
    </style>
    <linearGradient id="Gradiente_sem_nome_195" data-name="Gradiente sem nome 195" x1="0" y1="139.14" x2="363.28" y2="139.14" gradientUnits="userSpaceOnUse">
      <stop offset="0" stop-color="#aec910"/>
      <stop offset=".99" stop-color="#6e810c"/>
    </linearGradient>
    <linearGradient id="Gradiente_sem_nome_37" data-name="Gradiente sem nome 37" x1="8.15" y1="245.4" x2="342.55" y2="245.4" gradientUnits="userSpaceOnUse">
      <stop offset="0" stop-color="#b13f0a"/>
      <stop offset="1" stop-color="#e74d0f"/>
    </linearGradient>
    <linearGradient id="Gradiente_sem_nome_200" data-name="Gradiente sem nome 200" x1="337.76" y1="549.75" x2="337.76" y2="5.38" gradientUnits="userSpaceOnUse">
      <stop offset=".3" stop-color="#00893b"/>
      <stop offset=".31" stop-color="#078b38"/>
      <stop offset=".39" stop-color="#339b2c"/>
      <stop offset=".48" stop-color="#59a921"/>
      <stop offset=".57" stop-color="#78b519"/>
      <stop offset=".66" stop-color="#8fbd12"/>
      <stop offset=".76" stop-color="#a0c40d"/>
      <stop offset=".87" stop-color="#aac70a"/>
      <stop offset="1" stop-color="#aec90a"/>
    </linearGradient>
    <linearGradient id="Gradiente_sem_nome_92" data-name="Gradiente sem nome 92" x1="258.8" y1="108.06" x2="370.4" y2="219.65" gradientUnits="userSpaceOnUse">
      <stop offset="0" stop-color="#00893b"/>
      <stop offset="1" stop-color="#05662a"/>
    </linearGradient>
  </defs>
  <g>
    <path class="cls-2" d="M363.27,51.83c-33.52-8.72-65.96-8.11-97.42,1.98-94.78,30.4-155.63,93.57-180.08,190.74-2.68,10.65-4.15,21.61-6.36,33.4-21.84,1.2-43.18-.45-62.04-13.64C5.11,255.74,1.1,242.97.27,228.75c-1.74-29.69,5.08-57.54,17.2-84.49C54.82,61.24,171.08-8.03,257.05.75c39.53,4.04,73.37,20.51,102.8,46.74,1.02.91,1.73,2.16,3.43,4.34h0Z"/>
    <path class="cls-3" d="M8.15,269.31c33.55,22.24,67.77,20.16,102.27,13.41,12.76-2.49,25.35-6.42,37.57-10.89,26.38-9.67,41.4-28.58,44.46-56.93,1.03-9.56,3.22-19.04,5.42-28.43,3.51-14.98,11.38-27.44,21.61-36.71,15.35,4.14,29.58,8.23,43.92,11.79,28.08,6.97,47.16,24.18,58.48,50.49,3.44,8,6.48,16.2,10.27,24.02,2.52,5.19,6.05,9.89,10.41,16.86-9.14,8.19-18.66,18.44-29.8,26.4-51.62,36.85-109.19,58.43-172.62,61.53-55.21,2.69-97.83-21.71-129.49-66.32-.64-.9-.98-2.02-2.49-5.2h0Z"/>
    <path class="cls-7" d="M461.57,89.27c-21.56-27.66-50.65-45.87-82.31-60.02-26.27-11.74-53.56-20.27-82.13-23.87h0c7.11,3.16,14.31,6.16,21.33,9.52,48.39,23.19,76.92,61.47,85.64,114.3,6.44,39-6.95,72.75-29.56,103.5-26.12,35.52-59.81,62.77-98.18,83.49-36.03,19.5-84.02,35.01-89.93,36.89-.19.06-.38.12-.55.17-.03.01-.05.02-.05.02h0c-4.48,1.51-6.12,3.47-5.55,8.42,1.91,16.72.56,8.83,3.12,25.44,5.84,37.89,14.23,75.26,28.09,111.09,3.11,8.04,8.34,16.46,14.96,21.71,20.13,15.95,44.63,22.52,70.81,29.81-17.51-49.87-27.77-90.6-34.66-133.91-.04-.26-.08-.51-.12-.76-.05-.29-.09-.59-.14-.89-1.74-11.43,6.85-14.19,6.85-14.19,33.47-9.88,65.97-22.19,96.66-39,45.99-25.2,85.61-57.45,109.81-105.03,29.53-58.08,26.64-114.46-14.09-166.7Z"/>
    <path class="cls-5" d="M319,125.04c.23-1.26-.14-4.72,1.42-6.51,2.45-2.81,6.31-6.36,9.35-6.17,3.53.23,6.87,4.09,10.16,6.55.55.42.69,1.81.54,2.67-2.88,16.14,5.54,28.78,11.83,42.55,8.94,19.54,9.18,40.51,4.55,61.43-.73,3.31-1.73,6.8-3.54,9.59-2.45,3.77-5.81,6.93-8.78,10.36-2.86-3.38-6.43-6.39-8.43-10.21-3.44-6.6-6.06-13.65-8.79-20.61-12.44-31.82-35.28-51.33-68.67-58.53-7.91-1.71-15.87-3.31-23.59-5.68-3.6-1.1-6.69-3.88-10.01-5.9,2.44-3.38,4.21-7.69,7.42-9.99,13.34-9.54,28.87-13.64,44.91-13.61,13.51.01,27.01,2.54,41.64,4.08v-.02Z"/>
    <path class="cls-8" d="M168.61,358.87c3.18,20.02,6.27,39.4,9.41,59.16-7.59,4.31-14.9,2.41-21.94-1.59-18.92-10.75-33.14-26.85-49.54-42.91,21.61-5.11,41.67-9.85,62.07-14.67h0Z"/>
    <path class="cls-6" d="M209.14,231.51s-2.47-37.05,17.97-62.92c0,0,1.98-4.23-.68-5.76s-4.41,1.31-4.41,1.31c0,0-23.12,23.59-18.09,69.99,0,0,.62,2.05,3.28,1.85s1.94-4.47,1.94-4.47Z"/>
  </g>
  <g>
    <path class="cls-4" d="M626.05,176.64c13.32,0,25.36,3.12,36,9.46,10.57,6.14,18.94,14.59,25.07,25.3l.58,1.02c5.95,10.54,8.89,22.32,8.89,35.24s-2.86,25.33-8.66,36.1c-5.62,10.56-13.41,19.04-23.33,25.37h-.02s-.02.03-.02.03c-10.01,6.21-21.29,9.29-33.71,9.29-10.04,0-19.41-2.05-28.03-6.18l-.1-.05c-5.81-2.96-13.8.87-13.8,7.39v37.4c0,4.48-1.45,8.47-4.53,11.61l-.3.31c-3.13,3.18-7.18,4.67-11.76,4.67s-8.71-1.63-11.95-4.88c-3.15-3.15-4.63-7.18-4.63-11.72v-109.4c.17-13.3,3.29-25.39,9.45-36.16,5.94-10.39,13.99-18.67,24.11-24.76l.99-.58c10.63-6.33,22.59-9.46,35.76-9.46ZM626.05,206.94c-7.23,0-13.71,1.8-19.55,5.36h-.01s-.01.02-.01.02c-5.69,3.41-10.18,8.17-13.51,14.38v.02s-.02.02-.02.02c-3.28,5.99-4.98,12.93-4.98,20.93,0,7.81,1.69,14.76,4.99,20.95,3.31,6.04,7.81,10.82,13.52,14.4,5.84,3.41,12.33,5.13,19.57,5.13s13.9-1.73,19.54-5.11c5.74-3.59,10.25-8.38,13.56-14.44v-.02s.02-.01.02-.01c3.34-5.98,5.09-12.68,5.2-20.17v-.73c0-7.96-1.76-14.88-5.18-20.86l-.03-.05-.03-.05c-3.32-6.21-7.82-10.97-13.51-14.38l-.03-.02-.03-.02c-5.65-3.53-12.11-5.33-19.51-5.33Z"/>
    <path class="cls-4" d="M943.6,176.64c13.32,0,25.36,3.12,36,9.46,10.57,6.14,18.94,14.59,25.07,25.3l.58,1.02c5.95,10.54,8.89,22.32,8.89,35.24s-2.86,25.33-8.66,36.1c-5.62,10.56-13.41,19.04-23.33,25.37h-.02s-.02.03-.02.03c-10.01,6.21-21.29,9.29-33.71,9.29-10.04,0-19.41-2.05-28.03-6.18l-.1-.05c-5.81-2.96-13.8.87-13.8,7.39v37.4c0,4.48-1.45,8.47-4.53,11.61l-.3.31c-3.13,3.18-7.18,4.67-11.76,4.67s-8.71-1.63-11.95-4.88c-3.15-3.15-4.63-7.18-4.63-11.72v-109.4c.17-13.3,3.29-25.39,9.45-36.16,5.94-10.39,13.99-18.67,24.11-24.76l.99-.58c10.63-6.33,22.59-9.46,35.76-9.46ZM943.6,206.94c-7.23,0-13.71,1.8-19.55,5.36h-.01s-.01.02-.01.02c-5.69,3.41-10.18,8.17-13.51,14.38v.02s-.02.02-.02.02c-3.28,5.99-4.98,12.93-4.98,20.93s1.69,14.76,4.99,20.95c3.31,6.04,7.81,10.82,13.52,14.4,5.84,3.41,12.33,5.13,19.57,5.13s13.9-1.73,19.54-5.11c5.74-3.59,10.24-8.38,13.56-14.44v-.02s.02-.01.02-.01c3.34-5.98,5.09-12.68,5.2-20.17v-.73c0-7.96-1.76-14.88-5.18-20.86l-.03-.05-.03-.05c-3.32-6.21-7.82-10.97-13.5-14.38l-.03-.02-.03-.02c-5.65-3.53-12.11-5.33-19.51-5.33Z"/>
    <path class="cls-4" d="M1112.21,176.64c13.32,0,25.36,3.12,36,9.46,10.57,6.14,18.94,14.59,25.07,25.3l.58,1.02c5.95,10.54,8.89,22.32,8.89,35.24s-2.86,25.33-8.66,36.1c-5.62,10.56-13.41,19.04-23.33,25.37h-.02s-.02.03-.02.03c-10.01,6.21-21.29,9.29-33.71,9.29-10.04,0-19.41-2.05-28.03-6.18l-.1-.05c-5.81-2.96-13.8.87-13.8,7.39v37.4c0,4.48-1.45,8.47-4.53,11.61l-.3.31c-3.13,3.18-7.18,4.67-11.76,4.67s-8.71-1.63-11.95-4.88c-3.15-3.15-4.63-7.18-4.63-11.72v-109.4c.17-13.3,3.29-25.39,9.45-36.16,5.94-10.39,13.99-18.67,24.11-24.76l.99-.58c10.63-6.33,22.59-9.46,35.76-9.46ZM1112.21,206.94c-7.23,0-13.71,1.8-19.55,5.36h-.01s-.01.02-.01.02c-5.69,3.41-10.18,8.17-13.51,14.38v.02s-.02.02-.02.02c-3.28,5.99-4.98,12.93-4.98,20.93s1.69,14.76,4.99,20.95c3.31,6.04,7.81,10.82,13.52,14.4,5.84,3.41,12.33,5.13,19.57,5.13s13.9-1.73,19.54-5.11c5.74-3.59,10.24-8.38,13.56-14.44v-.02s.02-.01.02-.01c3.34-5.98,5.09-12.68,5.2-20.17v-.73c0-7.96-1.76-14.88-5.18-20.86l-.03-.05-.03-.05c-3.32-6.21-7.82-10.97-13.51-14.38l-.03-.02-.03-.02c-5.65-3.53-12.11-5.33-19.51-5.33Z"/>
    <path class="cls-4" d="M786.75,176.64c13.12,0,24.64,2.94,34.4,9.03,9.68,5.88,17.03,14.1,22.02,24.56l.47.97c4.83,10.06,7.18,21.54,7.18,34.31,0,4.15-1.47,7.83-4.4,10.76l-.06.06-.06.06c-2.99,2.76-6.73,4.03-10.87,4.03h-76.41c-4.66,0-8.01,4.52-5.67,8.56,3.6,6.19,8.56,11.08,14.93,14.71,6.3,3.58,13.61,5.43,22.07,5.43,4.43,0,8.98-.79,13.68-2.4,4.99-1.82,8.78-3.79,11.52-5.84l.04-.03c3.03-2.22,6.43-3.45,10.11-3.48,3.76-.19,7.21.86,10.11,3.2l.28.23.07.06c3.35,2.96,5.55,6.61,5.79,10.94.25,4.57-1.9,8.33-5.48,11.09h0c-5.91,4.7-13.18,8.42-21.69,11.26-8.38,2.85-16.53,4.31-24.42,4.31-13.9,0-26.45-2.94-37.56-8.91l-.04-.02-.04-.02c-10.88-6.12-19.52-14.49-25.83-25.07l-.02-.03-.02-.04c-6.17-10.8-9.21-23.08-9.21-36.69s2.85-25.98,8.69-36.63v-.02c5.97-10.73,14.19-19.14,24.63-25.14,10.5-6.2,22.47-9.24,35.79-9.24ZM786.75,205.98c-8.45,0-15.46,1.84-21.21,5.34-5.66,3.54-9.97,8.41-12.98,14.71v.02s-.02.02-.02.02c-1.51,3.1.96,6.44,4.41,6.44h53.3c4.53,0,7.9-4.29,5.91-8.36v-.02s-.02-.02-.02-.02c-2.72-5.72-6.52-10.12-11.4-13.33-4.76-3.13-10.68-4.8-17.99-4.8Z"/>
    <path class="cls-4" d="M1272.91,176.64c13.12,0,24.64,2.94,34.4,9.03,9.68,5.88,17.03,14.1,22.02,24.56l.48.97c4.83,10.06,7.18,21.54,7.18,34.31,0,4.15-1.47,7.83-4.4,10.76l-.06.06-.06.06c-2.99,2.76-6.74,4.03-10.87,4.03h-76.41c-4.66,0-8.01,4.52-5.67,8.56,3.6,6.19,8.56,11.08,14.93,14.71,6.3,3.58,13.61,5.43,22.06,5.43,4.42,0,8.98-.78,13.67-2.4,4.99-1.82,8.79-3.79,11.52-5.84l.04-.03c3.03-2.22,6.43-3.45,10.11-3.48,3.76-.19,7.21.86,10.11,3.2l.28.23.07.06c3.35,2.96,5.55,6.61,5.78,10.94.26,4.57-1.9,8.33-5.48,11.09h0c-5.92,4.7-13.18,8.42-21.69,11.26-8.38,2.85-16.53,4.31-24.43,4.31-13.9,0-26.45-2.94-37.56-8.91l-.04-.02-.03-.02c-10.88-6.12-19.52-14.49-25.83-25.07l-.02-.03-.02-.04c-6.17-10.8-9.21-23.08-9.21-36.69s2.85-25.98,8.69-36.63v-.02c5.97-10.73,14.19-19.14,24.63-25.14,10.5-6.2,22.47-9.24,35.79-9.24ZM1272.91,205.98c-8.45,0-15.46,1.84-21.21,5.34-5.66,3.54-9.97,8.41-12.98,14.71v.02s-.02.02-.02.02c-1.51,3.1.96,6.44,4.41,6.44h53.3c4.53,0,7.9-4.29,5.91-8.36v-.02s-.01-.02-.01-.02c-2.72-5.72-6.52-10.12-11.41-13.33-4.75-3.13-10.68-4.8-17.99-4.8Z"/>
    <path class="cls-4" d="M1530.31,176.64c13.45,0,25.56,3.03,36.2,9.2,10.62,5.99,18.95,14.41,24.93,25.17,6.17,10.65,9.19,22.92,9.19,36.65s-2.94,25.85-8.94,36.65h0s0,.03,0,.03c-5.98,10.59-14.29,18.98-24.87,25.13h-.02s-.03.03-.03.03c-10.65,6.01-22.84,8.96-36.44,8.96s-25.78-2.94-36.44-8.96h-.02s-1.01-.61-1.01-.61c-10.1-6.08-18.15-14.26-24.1-24.5l-.02-.04v-.04c-6.01-10.8-8.96-23.05-8.96-36.65s2.94-26.02,8.96-36.68h0s0-.02,0-.02c6.14-10.74,14.53-19.14,25.14-25.13,10.65-6.17,22.84-9.2,36.44-9.2ZM1530.31,206.94c-7.61,0-14.18,1.75-19.81,5.13-5.69,3.41-10.19,8.17-13.51,14.38v.02s-.02.02-.02.02c-3.28,5.98-4.98,13-4.98,21.17s1.7,15.18,4.98,21.17c3.31,6.05,7.81,10.75,13.53,14.18,5.64,3.38,12.2,5.13,19.81,5.13s14.18-1.75,19.82-5.13c5.7-3.42,10.1-8.1,13.25-14.11l.02-.04.02-.04c3.17-5.8,4.87-12.56,4.97-20.4v-.76c0-8.17-1.69-15.19-4.97-21.17l-.03-.05-.03-.05c-3.16-6.17-7.56-10.91-13.23-14.31-5.64-3.38-12.2-5.13-19.82-5.13Z"/>
    <path class="cls-4" d="M1854.15,176.64c13.11,0,24.64,2.94,34.39,9.03,9.68,5.88,17.03,14.1,22.03,24.56l.48.97c4.82,10.06,7.18,21.54,7.18,34.31,0,4.15-1.47,7.83-4.4,10.76l-.06.06-.06.06c-2.99,2.76-6.73,4.03-10.87,4.03h-76.42c-4.66,0-8.01,4.52-5.66,8.56,3.61,6.19,8.56,11.08,14.93,14.71,6.3,3.58,13.61,5.43,22.07,5.43,4.42,0,8.98-.78,13.67-2.4,5-1.82,8.79-3.79,11.53-5.84l.04-.03c3.04-2.22,6.43-3.45,10.11-3.48,3.76-.19,7.21.86,10.11,3.2l.29.23.06.06c3.36,2.96,5.55,6.61,5.79,10.94.25,4.57-1.9,8.33-5.48,11.09h0c-5.91,4.7-13.18,8.42-21.69,11.26-8.38,2.85-16.53,4.31-24.42,4.31-13.9,0-26.46-2.94-37.56-8.91l-.03-.02-.04-.02c-10.88-6.12-19.51-14.49-25.83-25.07l-.02-.03-.02-.04c-6.17-10.8-9.21-23.08-9.21-36.69s2.86-25.98,8.7-36.63h0v-.02c5.97-10.73,14.18-19.14,24.62-25.14,10.5-6.2,22.47-9.24,35.79-9.24ZM1854.15,205.98c-8.45,0-15.47,1.84-21.21,5.34-5.66,3.54-9.97,8.41-12.98,14.71v.02s-.01.02-.01.02c-1.51,3.1.96,6.44,4.4,6.44h53.3c4.53,0,7.9-4.29,5.92-8.36v-.02s-.02-.02-.02-.02c-2.72-5.72-6.51-10.12-11.41-13.33-4.75-3.13-10.68-4.8-17.99-4.8Z"/>
    <path class="cls-1" d="M1697.89,176.4c11.67,0,22.24,2.54,31.58,7.73,9.54,5.05,17,12.53,22.33,22.31,5.39,9.61,8.07,21.14,8.23,34.42v1.29s0,58.99,0,58.99c0,4.63-1.62,8.71-4.87,11.95-3.15,3.15-7.18,4.63-11.72,4.63s-8.58-1.48-11.85-4.53l-.11-.1-.1-.11c-3.05-3.27-4.53-7.31-4.53-11.85v-58.99c0-8.61-1.59-15.22-4.45-20.1-2.93-5.03-6.84-8.64-11.76-10.96l-.06-.03-.07-.03c-4.88-2.51-10.65-3.83-17.43-3.83-6.11,0-11.51,1.23-16.28,3.62-4.83,2.42-8.56,5.62-11.31,9.61l-.02.03-.02.03c-2.54,3.56-3.89,7.69-3.98,12.53v.55s0,67.59,0,67.59c0,4.53-1.48,8.58-4.53,11.85l-.05.05-.06.05c-3.19,3.19-7.32,4.63-11.96,4.63s-8.58-1.48-11.85-4.53l-.11-.1-.11-.11c-3.05-3.27-4.53-7.31-4.53-11.85v-106.95c0-4.63,1.44-8.77,4.63-11.95l.05-.05.06-.05c3.27-3.05,7.32-4.53,11.85-4.53,4.63,0,8.77,1.45,11.96,4.63,2.47,2.47,6.55,3.83,9.59,2.11.27-.15.55-.31.82-.46,9.17-5.02,19.41-7.49,30.63-7.49Z"/>
    <path class="cls-1" d="M1428.08,176.16c9.87,0,18.01,1.61,23.72,5.5,2.8,1.78,5.12,3.98,6.5,6.74,1.41,2.82,1.65,5.85.9,8.89-.64,2.96-1.99,5.59-4.24,7.59l-.02.02c-1.9,1.67-4.16,2.71-6.65,3.17-2.41.44-4.91.31-7.42-.26-9.77-1.98-18.34-2.09-25.77-.49-7.5,1.62-13.15,4.55-17.22,8.61-3.76,3.89-5.72,8.84-5.72,15.18v70.02c0,4.57-1.24,8.73-4.29,11.85-3.03,3.28-7.37,4.5-12.06,4.5s-8.7-1.14-11.83-4.03l-.07-.06-.06-.06c-3.16-3.15-4.4-7.47-4.4-12.2v-107.19c0-4.63,1.27-8.83,4.4-11.96,3.12-3.12,7.33-4.39,11.95-4.39s8.93,1.2,11.96,4.39c2.67,2.54,7.14,4.2,10.31,2.31.49-.3.99-.58,1.5-.87,8.67-4.86,18.2-7.27,28.51-7.27Z"/>
  </g>
</svg>